# xmcd
#
# Track frame offsets: 
#        150
#        11720
#        26360
#        43211
#        63887
#        78200
#        95895
#        111770
#        131007
#        150371
#        167081
#        183398
#        198966
#        219840
#
# Disc length: 3174 seconds
#
# Revision: 0
# Processed by: cddbd v1.5.2PL0 Copyright (c) Steve Scherf et al.
# Submitted via: ExactAudioCopy v0.99pb5
#
DISCID=b00c640e
DTITLE=Portrait - Share My Love
DYEAR=2004
DGENRE=R&B
TTITLE0=Turntables
TTITLE1=Share My Love
TTITLE2=Let's Dance
TTITLE3=Luv U Better
TTITLE4=Hush
TTITLE5=Leav'n Today
TTITLE6=Spend The Night
TTITLE7=Life Without You
TTITLE8=Slip and Slide
TTITLE9=U Know
TTITLE10=Satisfy
TTITLE11=Dry Your Eye
TTITLE12=Easy Rider
TTITLE13=Midnight Hour
EXTD=
EXTT0=
EXTT1=
EXTT2=
EXTT3=
EXTT4=
EXTT5=
EXTT6=
EXTT7=
EXTT8=
EXTT9=
EXTT10=
EXTT11=
EXTT12=
EXTT13=
PLAYORDER=
